<?xml version="1.0" standalone="no"?>
<!DOCTYPE svg PUBLIC "-//W3C//DTD SVG 20010904//EN"
 "http://www.w3.org/TR/2001/REC-SVG-20010904/DTD/svg10.dtd">
<svg version="1.0" xmlns="http://www.w3.org/2000/svg"
 width="710.000000pt" height="296.000000pt" viewBox="0 0 710.000000 296.000000"
 preserveAspectRatio="xMidYMid meet">

<g transform="translate(0.000000,296.000000) scale(0.100000,-0.100000)"
fill="#ffffff" stroke="none">
<path d="M1879 2420 c-9 -5 -22 -23 -29 -40 -33 -81 64 -147 125 -85 65 64
-17 171 -96 125z"/>
<path d="M969 2011 c-90 -29 -156 -71 -222 -141 -102 -108 -147 -226 -148
-386 -1 -152 46 -282 138 -384 152 -170 411 -217 615 -114 74 38 168 135 206
214 44 91 44 100 2 115 -66 23 -90 26 -90 13 -1 -28 -57 -121 -99 -163 -25
-25 -70 -58 -100 -73 -49 -24 -68 -27 -151 -27 -87 0 -101 3 -161 32 -295 146
-300 619 -7 769 42 22 70 28 141 32 100 5 156 -7 221 -49 56 -35 121 -116 143
-180 13 -36 22 -48 33 -43 8 3 37 10 63 17 45 10 48 13 42 36 -24 94 -132 235
-222 288 -108 63 -284 83 -404 44z"/>
<path d="M2598 2007 c-227 -78 -373 -310 -354 -566 11 -153 69 -275 176 -375
71 -66 141 -101 240 -122 227 -48 443 55 545 259 48 95 47 101 -22 120 -31 9
-57 16 -58 14 -1 -1 -13 -27 -27 -57 -37 -80 -98 -144 -175 -182 -61 -30 -75
-33 -157 -32 -77 0 -100 4 -148 26 -183 84 -277 302 -223 513 65 247 314 369
535 263 65 -32 132 -105 165 -181 l28 -64 61 17 c71 20 71 22 25 117 -57 118
-169 216 -290 254 -89 28 -233 26 -321 -4z"/>
<path d="M3821 2014 c-83 -22 -150 -62 -222 -134 -255 -252 -191 -723 120
-888 144 -77 336 -80 480 -7 67 33 159 121 200 190 l35 57 -24 18 c-13 10 -36
25 -51 34 -28 17 -28 17 -48 -21 -53 -104 -167 -186 -280 -201 -210 -29 -382
87 -436 293 -8 33 -15 74 -15 92 l0 33 435 0 435 0 0 63 c0 127 -49 252 -135
345 -92 99 -201 143 -355 141 -47 0 -109 -7 -139 -15z m305 -137 c87 -44 150
-132 178 -249 l6 -28 -359 0 -360 0 8 28 c25 85 87 175 155 221 71 49 120 62
226 58 79 -3 104 -8 146 -30z"/>
<path d="M4697 1994 c-26 -20 -47 -41 -47 -46 0 -5 43 -65 95 -133 l95 -124 0
-371 0 -371 68 3 67 3 5 370 c4 329 7 374 23 402 49 90 154 151 273 160 l74 6
0 70 0 70 -66 -7 c-138 -14 -244 -72 -330 -180 l-31 -39 -82 109 c-45 60 -86
110 -90 112 -4 1 -28 -14 -54 -34z"/>
<path d="M5865 2020 c-193 -39 -348 -189 -399 -387 -21 -79 -21 -228 0 -307
61 -238 264 -396 507 -396 155 0 265 46 372 154 111 112 156 228 156 396 0
167 -49 290 -160 401 -71 70 -139 109 -236 134 -63 16 -173 18 -240 5z m278
-155 c242 -120 301 -482 110 -686 -26 -28 -75 -65 -108 -82 -56 -29 -67 -31
-165 -32 -93 0 -111 3 -162 27 -123 57 -208 175 -228 316 -22 155 26 302 128
394 82 74 155 99 277 95 75 -3 100 -8 148 -32z"/>
<path d="M1852 1483 l3 -528 68 -3 67 -3 0 531 0 530 -70 0 -70 0 2 -527z"/>
<path d="M1868 670 c-25 -26 -29 -36 -24 -63 14 -70 89 -94 133 -43 38 44 28
97 -24 124 -34 18 -52 14 -85 -18z"/>
</g>
</svg>
